<?xml version="1.0" encoding="UTF-8"?>
<svg id="Layer_1" data-name="Layer 1" xmlns="http://www.w3.org/2000/svg" xmlns:xlink="http://www.w3.org/1999/xlink" viewBox="0 0 1280 773.11">
  <defs>
    <style>
      .cls-1 {
        fill: url(#linear-gradient-12);
      }

      .cls-1, .cls-2, .cls-3, .cls-4, .cls-5, .cls-6, .cls-7, .cls-8, .cls-9, .cls-10, .cls-11, .cls-12, .cls-13, .cls-14, .cls-15, .cls-16, .cls-17, .cls-18 {
        stroke-width: 0px;
      }

      .cls-2 {
        fill: url(#linear-gradient);
      }

      .cls-3 {
        fill: url(#linear-gradient-6);
      }

      .cls-4 {
        fill: url(#linear-gradient-11);
      }

      .cls-5 {
        fill: url(#linear-gradient-5);
      }

      .cls-6 {
        fill: url(#linear-gradient-13);
      }

      .cls-7 {
        fill: url(#linear-gradient-14);
      }

      .cls-8 {
        fill: url(#linear-gradient-2);
      }

      .cls-9 {
        fill: url(#linear-gradient-7);
      }

      .cls-10 {
        fill: url(#radial-gradient-2);
      }

      .cls-11 {
        fill: url(#linear-gradient-3);
      }

      .cls-12 {
        fill: url(#linear-gradient-9);
      }

      .cls-13 {
        fill: url(#radial-gradient);
      }

      .cls-14 {
        fill: #ededed;
      }

      .cls-15 {
        fill: #0f2130;
      }

      .cls-16 {
        fill: url(#linear-gradient-8);
      }

      .cls-17 {
        fill: url(#linear-gradient-10);
      }

      .cls-18 {
        fill: url(#linear-gradient-4);
      }
    </style>
    <radialGradient id="radial-gradient" cx="772.04" cy="241.92" fx="772.04" fy="241.92" r="268.18" gradientUnits="userSpaceOnUse">
      <stop offset="0" stop-color="#3a70fa"/>
      <stop offset="1" stop-color="#5ed8fb"/>
    </radialGradient>
    <radialGradient id="radial-gradient-2" cy="241.92" fy="241.92" r="268.18" xlink:href="#radial-gradient"/>
    <linearGradient id="linear-gradient" x1="427.19" y1="518.35" x2="427.19" y2="566.08" gradientUnits="userSpaceOnUse">
      <stop offset="0" stop-color="#5ed8fb"/>
      <stop offset="1" stop-color="#3a70fa"/>
    </linearGradient>
    <linearGradient id="linear-gradient-2" x1="463.89" y1="518.35" x2="463.89" y2="566.08" xlink:href="#linear-gradient"/>
    <linearGradient id="linear-gradient-3" x1="500.27" y1="518.35" x2="500.27" y2="566.08" xlink:href="#linear-gradient"/>
    <linearGradient id="linear-gradient-4" x1="536.97" y1="518.35" x2="536.97" y2="566.08" xlink:href="#linear-gradient"/>
    <linearGradient id="linear-gradient-5" x1="581.87" y1="518.35" x2="581.87" y2="566.08" xlink:href="#linear-gradient"/>
    <linearGradient id="linear-gradient-6" x1="614.73" y1="518.35" x2="614.73" y2="566.08" xlink:href="#linear-gradient"/>
    <linearGradient id="linear-gradient-7" x1="639.1" y1="518.35" x2="639.1" y2="566.08" xlink:href="#linear-gradient"/>
    <linearGradient id="linear-gradient-8" x1="675.8" y1="518.35" x2="675.8" y2="566.08" xlink:href="#linear-gradient"/>
    <linearGradient id="linear-gradient-9" x1="712.59" y1="518.35" x2="712.59" y2="566.08" xlink:href="#linear-gradient"/>
    <linearGradient id="linear-gradient-10" x1="740.31" y1="518.35" x2="740.31" y2="566.08" xlink:href="#linear-gradient"/>
    <linearGradient id="linear-gradient-11" x1="768.08" y1="518.35" x2="768.08" y2="566.08" xlink:href="#linear-gradient"/>
    <linearGradient id="linear-gradient-12" x1="804.69" y1="518.35" x2="804.69" y2="566.08" xlink:href="#linear-gradient"/>
    <linearGradient id="linear-gradient-13" x1="829.29" y1="518.35" x2="829.29" y2="566.08" xlink:href="#linear-gradient"/>
    <linearGradient id="linear-gradient-14" x1="853.58" y1="518.35" x2="853.58" y2="566.08" xlink:href="#linear-gradient"/>
  </defs>
  <rect class="cls-15" width="1280" height="773.11"/>
  <g>
    <g>
      <path class="cls-13" d="M627.89,443.57c5.5,0,9.96-4.46,9.96-9.96s-4.46-9.96-9.96-9.96c-4.49,0-8.28,2.97-9.52,7.05h-54.7c-6.83-8.66-12.22-18.54-15.84-29.2h100.41c1.24,4.08,5.04,7.05,9.52,7.05,5.5,0,9.96-4.46,9.96-9.96s-4.46-9.96-9.96-9.96c-4.49,0-8.28,2.97-9.52,7.06h-102.17c-2.25-8.22-3.44-16.89-3.44-25.81,0-.26,0-.49.02-.74h132.47c1.24,4.08,5.03,7.05,9.52,7.05,5.5,0,9.96-4.46,9.96-9.96s-4.46-9.96-9.96-9.96c-4.49,0-8.28,2.97-9.52,7.05h-138.07c-.14,1.93-.21,3.86-.23,5.81v.74c0,8.92,1.11,17.56,3.23,25.81.49,1.97,1.05,3.9,1.65,5.81,3.35,10.57,8.34,20.4,14.66,29.2,1.42,2,2.93,3.93,4.48,5.81h57.53c1.24,4.08,5.03,7.05,9.52,7.05Z"/>
      <path class="cls-10" d="M718.75,289.25c-18.65-20.91-75.29-24.02-75.29-24.02,68.36-.7,83.56,17.98,83.56,17.98l51.83-24.88-140.31-58.7-137.38,59.4,16.11,6.95-7.2,66.21,12.83,12.83,12.83-12.58-7.47-61.71,33.69,14.55v16.75c-.42.46-.81.95-1.21,1.42-6.83,8.22-12.38,17.49-16.42,27.55-.77,1.9-1.49,3.83-2.14,5.81h96.1c1.24,4.08,5.03,7.06,9.52,7.06,5.5,0,9.96-4.46,9.96-9.96s-4.46-9.96-9.96-9.96c-4.49,0-8.28,2.97-9.52,7.05h-87.64c4.39-10.17,10.43-19.49,17.84-27.55h83.6c1.71,3.02,4.95,5.07,8.67,5.07,5.5,0,9.96-4.46,9.96-9.96s-4.46-9.96-9.96-9.96c-5.19,0-9.44,3.97-9.91,9.03h-76.59c.05-.07.12-.12.16-.16h.42c5.81-5.3,11.87-9.83,18.24-13.57.12-.09.21-.14.33-.21,14.19-7.9,30.52-12.4,47.88-12.4,5.09,0,10.1.39,15.01,1.14h.02c13.1,6.2,19.47,17,23.51,30.55,1.65,5.41,2.9,11.27,4.09,17.45.81,4.25,2.49,8.34,5.11,11.8,5.69,7.46,13.75,13.5,23.07,18.84,4.02,2.3,4.62,7.83,1.16,10.92l-5.78,5.18c-1.65,1.49-1.7,4.07.6,6.23l5.67,5.39c2.62,2.49,2.09,6.95-1.16,8.5-1.42.7-3,.86-4.09.98-1.02.09-1.79.95-1.79,2,0,1.12.88,2,2,2h.58c1.93,0,3.6,1.49,3.67,3.41.16,4.44-2.09,6.43-4.16,7.34-1.93.84-3.25,2.65-3.25,4.74v.51c0,1.42.53,2.81,1.58,3.79,1.6,1.51,2.95,3.04,4.09,4.6,5.44,7.53-.21,18.07-9.5,18.07h-32.73c-7.9,0-15.56,2.9-21.37,8.25-10.62,9.76-17.24,23.88-17.24,23.88l-.05,1.09c-9.76-1.09-19.07-3.6-27.78-7.32,0-5.51-4.46-9.94-9.97-9.94-2,0-3.86.58-5.41,1.6-1.7,1.09-3.02,2.67-3.76,4.55-.51,1.16-.77,2.44-.77,3.79,0,5.51,4.44,9.97,9.94,9.97,3.44,0,6.46-1.74,8.25-4.37,9.18,3.86,19,6.46,29.27,7.55,3.67.37,7.41.58,11.2.58,57.66,0,104.42-46.76,104.42-104.44,0-26.62-9.97-50.92-26.37-69.34l-.56-11.31Z"/>
    </g>
    <g>
      <path class="cls-2" d="M422.33,555.24c-2.25,0-4.12-.23-5.62-.69-1.5-.46-2.7-1.2-3.6-2.21-.9-1.01-1.54-2.34-1.91-3.99-.38-1.64-.56-3.66-.56-6.06v-11.84c0-2.36.19-4.37.56-6.03.37-1.66,1.01-3,1.91-4.01.9-1.01,2.1-1.75,3.6-2.21,1.5-.46,3.37-.69,5.62-.69h21.41v7.14h-21.41c-.99,0-1.8.1-2.43.3-.63.2-1.13.53-1.51.97-.38.44-.63,1.03-.76,1.77-.13.74-.2,1.66-.2,2.77v2.55h26.13v6.7h-26.13v2.66c0,1.14.07,2.09.2,2.82.14.74.38,1.33.74,1.77s.86.75,1.51.91c.64.17,1.46.25,2.45.25h21.41v7.14h-21.41Z"/>
      <path class="cls-8" d="M459.66,555.24c-2.28,0-4.18-.23-5.69-.69-1.51-.46-2.72-1.2-3.62-2.21-.9-1.01-1.54-2.34-1.91-3.99-.38-1.64-.56-3.66-.56-6.06v-4.04c0-2.4.19-4.43.56-6.09.37-1.66,1.01-3,1.91-4.01.9-1.01,2.11-1.75,3.62-2.21,1.51-.46,3.41-.69,5.69-.69h13.54v-9.69h6.7v26.74c0,2.4-.19,4.42-.56,6.06-.38,1.64-1.01,2.97-1.91,3.99-.9,1.02-2.1,1.75-3.6,2.21-1.5.46-3.39.69-5.67.69h-8.5ZM454.58,542.06c0,1.33.08,2.4.25,3.21.16.81.47,1.44.92,1.88s1.06.74,1.82.89c.76.15,1.75.22,2.95.22h7.47c1.05,0,1.91-.08,2.59-.25.67-.17,1.21-.48,1.6-.94.39-.46.66-1.09.81-1.88.15-.79.22-1.82.22-3.07v-9.8h-12.73c-1.17,0-2.14.07-2.9.22-.76.15-1.37.44-1.82.88-.45.44-.76,1.07-.92,1.88-.17.81-.25,1.88-.25,3.21v3.54Z"/>
      <path class="cls-11" d="M497.71,564.21v-6.75h9.31c.99,0,1.69-.24,2.11-.72.42-.48.63-1.31.63-2.49v-2.44h-15.29c-1.86,0-3.44-.18-4.74-.55-1.3-.37-2.36-.95-3.17-1.74-.81-.79-1.39-1.83-1.75-3.1-.36-1.27-.54-2.81-.54-4.62v-4.59c0-2.29.16-4.2.47-5.73.31-1.53.87-2.76,1.66-3.68s1.87-1.58,3.24-1.97c1.36-.39,3.08-.58,5.15-.58h10.88c2.01,0,3.69.22,5.06.66,1.36.44,2.46,1.14,3.28,2.1s1.41,2.2,1.75,3.71c.34,1.51.52,3.34.52,5.48v17.49c0,3.36-.67,5.78-2.02,7.28-1.35,1.49-3.55,2.24-6.61,2.24h-9.94ZM509.76,537.36c0-1.99-.31-3.34-.94-4.04-.63-.7-1.77-1.05-3.42-1.05h-10.52c-1.56,0-2.62.36-3.19,1.08-.57.72-.85,2.07-.85,4.07v3.93c0,.81.07,1.48.2,1.99.14.52.36.93.67,1.25.31.31.73.53,1.24.64.51.11,1.15.17,1.93.17h14.89v-8.03Z"/>
      <path class="cls-18" d="M527.79,543.28v1.38c0,.92.06,1.66.18,2.21.12.55.34.99.65,1.3.31.31.73.53,1.26.64.52.11,1.18.17,1.96.17h21v6.25h-21c-3.87,0-6.63-.9-8.27-2.71-1.65-1.81-2.47-4.71-2.47-8.69v-6.92c0-2.18.17-4.01.52-5.51.34-1.49.94-2.69,1.8-3.6.85-.9,1.99-1.56,3.4-1.97,1.41-.41,3.19-.61,5.35-.61h11.78c1.74,0,3.19.2,4.34.61,1.15.41,2.07.97,2.74,1.69.67.72,1.15,1.59,1.42,2.6.27,1.02.4,2.11.4,3.29v9.85h-25.05ZM546.14,534.09c0-1-.2-1.66-.61-1.99s-1.12-.5-2.14-.5h-11.15c-.84,0-1.54.05-2.11.14-.57.09-1.03.3-1.37.64-.35.33-.59.81-.74,1.44-.15.63-.22,1.48-.22,2.55v1.6h18.35v-3.87Z"/>
      <path class="cls-5" d="M599.79,555.24v-24.85l-14.98,24.08c-.69,1.07-1.69,1.6-3.01,1.6s-2.32-.53-3.01-1.6l-14.93-24.08v24.85h-6.21v-35.15c0-1.18.35-2.05,1.06-2.6.7-.55,1.58-.83,2.63-.83.81,0,1.45.14,1.93.42.48.28.91.73,1.3,1.36l17.31,28.29,17.45-28.29c.39-.63.8-1.08,1.24-1.36.43-.28,1.04-.42,1.82-.42,1.05,0,1.93.28,2.63.83.7.55,1.06,1.42,1.06,2.6v35.15h-6.3Z"/>
      <path class="cls-3" d="M613.6,523.52c-.84,0-1.43-.2-1.78-.61s-.52-1.05-.52-1.94v-3.21c0-.89.17-1.52.52-1.91.34-.39.94-.58,1.78-.58h2.2c.87,0,1.48.19,1.82.58.34.39.52,1.02.52,1.91v3.21c0,.89-.17,1.53-.52,1.94-.34.41-.95.61-1.82.61h-2.2ZM611.31,555.24v-29.23h6.84v29.23h-6.84Z"/>
      <path class="cls-9" d="M648.18,555.24v-16.72c0-1.25-.08-2.28-.25-3.07-.17-.79-.45-1.42-.86-1.88-.4-.46-.96-.78-1.66-.97-.71-.18-1.6-.28-2.68-.28h-7.29c-1.05,0-1.93.09-2.63.28-.7.19-1.27.51-1.69.97-.42.46-.71,1.09-.88,1.88-.17.79-.25,1.82-.25,3.07v16.72h-6.7v-16.99c0-2.4.19-4.43.56-6.09.37-1.66,1.01-3,1.91-4.01.9-1.01,2.1-1.75,3.6-2.21,1.5-.46,3.37-.69,5.62-.69h8.14c2.28,0,4.17.23,5.67.69,1.5.46,2.7,1.2,3.6,2.21.9,1.02,1.54,2.35,1.91,4.01s.56,3.69.56,6.09v16.99h-6.7Z"/>
      <path class="cls-16" d="M671.57,555.24c-2.28,0-4.18-.23-5.69-.69-1.51-.46-2.72-1.2-3.62-2.21-.9-1.01-1.54-2.34-1.91-3.99-.38-1.64-.56-3.66-.56-6.06v-4.04c0-2.4.19-4.43.56-6.09s1.01-3,1.91-4.01c.9-1.01,2.11-1.75,3.62-2.21,1.51-.46,3.41-.69,5.69-.69h13.54v-9.69h6.7v26.74c0,2.4-.19,4.42-.56,6.06-.38,1.64-1.01,2.97-1.91,3.99-.9,1.02-2.1,1.75-3.6,2.21-1.5.46-3.39.69-5.67.69h-8.5ZM666.49,542.06c0,1.33.08,2.4.25,3.21.16.81.47,1.44.92,1.88.45.44,1.06.74,1.82.89.76.15,1.75.22,2.95.22h7.46c1.05,0,1.91-.08,2.59-.25.67-.17,1.21-.48,1.6-.94.39-.46.66-1.09.81-1.88.15-.79.23-1.82.23-3.07v-9.8h-12.73c-1.17,0-2.14.07-2.9.22s-1.37.44-1.82.88c-.45.44-.76,1.07-.92,1.88-.17.81-.25,1.88-.25,3.21v3.54Z"/>
      <path class="cls-12" d="M696.08,555.24v-7.14h23.3c1.23,0,2.11-.21,2.65-.64.54-.42.81-1.28.81-2.57v-2.05c0-1.18-.27-2.02-.81-2.52-.54-.5-1.41-.75-2.61-.75h-14.62c-1.71,0-3.12-.19-4.25-.58-1.12-.39-2.02-.98-2.68-1.77s-1.12-1.79-1.37-2.99c-.26-1.2-.38-2.61-.38-4.23v-1.88c0-1.92.16-3.56.5-4.93.33-1.36.84-2.46,1.53-3.29.69-.83,1.59-1.44,2.7-1.83,1.11-.39,2.43-.58,3.96-.58h24.29v7.14h-23.66c-1.05,0-1.82.25-2.32.75-.49.5-.74,1.5-.74,3.02v1.22c0,1.18.23,2.02.67,2.52.45.5,1.23.75,2.34.75h14.35c1.71,0,3.16.18,4.34.53,1.18.35,2.15.91,2.9,1.69.75.77,1.29,1.77,1.62,2.99s.5,2.68.5,4.37v2.99c0,1.77-.17,3.27-.5,4.51-.33,1.24-.87,2.24-1.62,3.02-.75.77-1.72,1.35-2.9,1.72-1.18.37-2.63.55-4.34.55h-23.66Z"/>
      <path class="cls-17" d="M734.76,555.24v-23.3h-3.42v-6.7h3.42v-8.47h6.84v8.47h7.69v6.7h-7.69v23.3h-6.84Z"/>
      <path class="cls-4" d="M764.08,555.24c-2.25,0-4.12-.23-5.62-.69-1.5-.46-2.7-1.2-3.6-2.21-.9-1.01-1.54-2.34-1.91-3.99-.38-1.64-.56-3.66-.56-6.06v-17.05h6.75v16.83c0,1.29.1,2.33.29,3.13.2.79.5,1.41.92,1.85s.98.75,1.69.91c.7.17,1.57.25,2.59.25h7.02c1.08,0,1.98-.08,2.7-.25.72-.17,1.28-.47,1.69-.91.4-.44.69-1.06.85-1.85.16-.79.25-1.83.25-3.13v-16.83h6.66v17.05c0,2.4-.19,4.42-.56,6.06-.38,1.64-1.01,2.97-1.91,3.99-.9,1.02-2.11,1.75-3.62,2.21-1.51.46-3.41.69-5.69.69h-7.92Z"/>
      <path class="cls-1" d="M800.46,555.24c-2.28,0-4.18-.23-5.69-.69-1.51-.46-2.72-1.2-3.62-2.21-.9-1.01-1.54-2.34-1.91-3.99-.38-1.64-.56-3.66-.56-6.06v-4.04c0-2.4.19-4.43.56-6.09s1.01-3,1.91-4.01c.9-1.01,2.11-1.75,3.62-2.21,1.51-.46,3.41-.69,5.69-.69h13.54v-9.69h6.7v26.74c0,2.4-.19,4.42-.56,6.06-.38,1.64-1.01,2.97-1.91,3.99-.9,1.02-2.1,1.75-3.6,2.21-1.5.46-3.39.69-5.67.69h-8.5ZM795.38,542.06c0,1.33.08,2.4.25,3.21.16.81.47,1.44.92,1.88.45.44,1.06.74,1.82.89.76.15,1.75.22,2.95.22h7.46c1.05,0,1.91-.08,2.59-.25.67-.17,1.21-.48,1.6-.94.39-.46.66-1.09.81-1.88.15-.79.23-1.82.23-3.07v-9.8h-12.73c-1.17,0-2.14.07-2.9.22s-1.37.44-1.82.88c-.45.44-.76,1.07-.92,1.88-.17.81-.25,1.88-.25,3.21v3.54Z"/>
      <path class="cls-6" d="M828.17,523.52c-.84,0-1.43-.2-1.78-.61-.35-.41-.52-1.05-.52-1.94v-3.21c0-.89.17-1.52.52-1.91.34-.39.94-.58,1.78-.58h2.2c.87,0,1.48.19,1.82.58.34.39.52,1.02.52,1.91v3.21c0,.89-.17,1.53-.52,1.94-.35.41-.95.61-1.82.61h-2.2ZM825.88,555.24v-29.23h6.84v29.23h-6.84Z"/>
      <path class="cls-7" d="M849.49,555.24c-2.25,0-4.12-.23-5.62-.69-1.5-.46-2.7-1.2-3.6-2.21-.9-1.01-1.54-2.34-1.91-3.99-.38-1.64-.56-3.66-.56-6.06v-4.04c0-2.4.19-4.43.56-6.09.37-1.66,1.01-3,1.91-4.01.9-1.01,2.1-1.75,3.6-2.21,1.5-.46,3.37-.69,5.62-.69h8.14c2.28,0,4.17.23,5.67.69,1.5.46,2.7,1.21,3.6,2.24.9,1.03,1.54,2.38,1.91,4.04.38,1.66.56,3.69.56,6.09v3.99c0,2.4-.19,4.42-.56,6.06-.38,1.64-1.01,2.97-1.91,3.99-.9,1.02-2.1,1.75-3.6,2.21-1.5.46-3.39.69-5.67.69h-8.14ZM862.66,538.52c0-1.25-.08-2.29-.25-3.1-.17-.81-.47-1.45-.9-1.91-.44-.46-1.04-.77-1.82-.94-.78-.17-1.77-.25-2.97-.25h-6.34c-1.2,0-2.18.08-2.95.25-.76.17-1.36.48-1.8.94-.43.46-.74,1.1-.9,1.91-.17.81-.25,1.85-.25,3.1v3.54c0,1.26.08,2.28.25,3.07.16.79.46,1.42.9,1.88.43.46,1.03.78,1.8.97s1.75.28,2.95.28h6.34c1.2,0,2.19-.09,2.97-.28.78-.18,1.39-.51,1.82-.97.43-.46.73-1.09.9-1.88.16-.79.25-1.82.25-3.07v-3.54Z"/>
    </g>
    <g>
      <path class="cls-14" d="M523.53,575.45h5.25v2.01h-7.69v-13.11h2.44v11.1Z"/>
      <path class="cls-14" d="M545.99,564.35v1.94h-5.81v3.63h4.58v1.88h-4.58v3.71h5.81v1.95h-8.27v-13.11h8.27Z"/>
      <path class="cls-14" d="M566.87,577.46h-1.89c-.21,0-.39-.05-.52-.16s-.23-.24-.3-.39l-.98-2.67h-5.43l-.98,2.67c-.05.14-.14.27-.29.38-.14.11-.32.17-.52.17h-1.89l5.15-13.11h2.49l5.15,13.11ZM558.39,572.51h4.18l-1.6-4.36c-.07-.19-.15-.42-.24-.68s-.17-.55-.26-.86c-.09.31-.17.6-.25.86-.08.27-.16.5-.24.7l-1.6,4.34Z"/>
      <path class="cls-14" d="M577.99,572.34v5.12h-2.44v-13.11h4c.89,0,1.66.09,2.3.28.64.18,1.16.44,1.57.77s.71.73.9,1.19c.19.46.29.97.29,1.53,0,.44-.06.86-.19,1.25s-.32.75-.56,1.07c-.24.32-.55.6-.91.84s-.77.44-1.23.58c.31.18.57.43.8.75l3.28,4.84h-2.19c-.21,0-.39-.04-.54-.13-.15-.08-.27-.2-.38-.36l-2.76-4.2c-.1-.16-.22-.27-.34-.34-.12-.07-.31-.1-.55-.1h-1.04ZM577.99,570.59h1.52c.46,0,.86-.06,1.2-.17s.62-.27.84-.48c.22-.2.39-.44.49-.72.11-.28.16-.58.16-.92,0-.66-.22-1.18-.66-1.53-.44-.36-1.11-.53-2.01-.53h-1.56v4.35Z"/>
      <path class="cls-14" d="M596.15,564.36c.07,0,.14.03.2.05.06.03.11.07.17.12.05.05.12.12.18.2l6.88,8.77c-.02-.21-.04-.42-.05-.62s-.01-.39-.01-.57v-7.97h2.15v13.11h-1.26c-.19,0-.35-.03-.48-.09-.13-.06-.25-.17-.37-.33l-6.85-8.73c.02.19.03.39.04.58s.01.36.01.52v8.05h-2.15v-13.11h1.28c.11,0,.2,0,.27.01Z"/>
      <path class="cls-14" d="M614.9,576.23c0-.19.03-.37.1-.54.07-.17.17-.31.29-.44.12-.12.27-.22.44-.29s.35-.11.54-.11.37.04.54.11c.17.07.31.17.44.29.12.12.22.27.29.44.07.17.11.35.11.54s-.04.37-.11.54c-.07.17-.17.31-.29.43s-.27.22-.44.29c-.17.07-.35.1-.54.1s-.37-.04-.54-.1-.32-.16-.44-.29c-.12-.12-.22-.26-.29-.43-.07-.17-.1-.35-.1-.54Z"/>
      <path class="cls-14" d="M627.49,577.46v-13.11h4.52c.86,0,1.59.08,2.2.24.61.16,1.11.4,1.5.7.39.3.68.67.86,1.1s.27.91.27,1.45c0,.31-.05.6-.14.88-.09.28-.23.54-.42.79s-.43.47-.73.67c-.29.2-.64.37-1.05.51,1.8.41,2.7,1.38,2.7,2.92,0,.56-.11,1.07-.32,1.54-.21.47-.52.88-.92,1.22-.4.34-.9.61-1.5.8-.59.19-1.27.29-2.03.29h-4.95ZM629.93,570.03h1.95c.83,0,1.46-.15,1.89-.45.43-.3.64-.78.64-1.44s-.19-1.17-.58-1.46c-.39-.29-.99-.44-1.81-.44h-2.09v3.79ZM629.93,571.71v3.84h2.47c.45,0,.83-.05,1.14-.16s.55-.25.73-.44c.18-.18.32-.39.4-.63s.12-.5.12-.77-.05-.54-.14-.77c-.09-.23-.23-.42-.43-.58-.19-.16-.44-.28-.74-.37-.3-.09-.67-.13-1.1-.13h-2.47Z"/>
      <path class="cls-14" d="M651.83,575.49c.47,0,.89-.08,1.26-.24.37-.16.69-.38.94-.66.26-.28.45-.63.59-1.03.14-.41.2-.86.2-1.36v-7.85h2.44v7.85c0,.78-.13,1.5-.38,2.16-.25.66-.61,1.23-1.08,1.71-.47.48-1.04.86-1.71,1.12-.67.27-1.43.4-2.27.4s-1.6-.13-2.27-.4c-.67-.27-1.24-.64-1.71-1.12-.47-.48-.83-1.05-1.08-1.71-.25-.66-.38-1.38-.38-2.16v-7.85h2.44v7.84c0,.5.07.96.2,1.36s.33.75.59,1.04c.25.29.57.51.94.67.37.16.79.24,1.26.24Z"/>
      <path class="cls-14" d="M669.75,577.46h-2.45v-13.11h2.45v13.11Z"/>
      <path class="cls-14" d="M682.39,575.45h5.25v2.01h-7.69v-13.11h2.44v11.1Z"/>
      <path class="cls-14" d="M708.22,570.9c0,.96-.16,1.84-.48,2.65-.32.8-.77,1.5-1.35,2.08-.58.58-1.28,1.03-2.09,1.35-.82.32-1.72.48-2.71.48h-5v-13.11h5c.99,0,1.89.16,2.71.48.82.32,1.51.77,2.09,1.35.58.58,1.03,1.27,1.35,2.07.32.8.48,1.69.48,2.65ZM705.72,570.9c0-.72-.1-1.36-.29-1.93-.19-.57-.47-1.05-.82-1.45-.36-.4-.79-.7-1.3-.91s-1.09-.32-1.73-.32h-2.55v9.23h2.55c.64,0,1.22-.11,1.73-.32s.94-.52,1.3-.91c.36-.4.63-.88.82-1.45.19-.57.29-1.22.29-1.94Z"/>
      <path class="cls-14" d="M716.25,576.23c0-.19.03-.37.1-.54.07-.17.17-.31.29-.44.12-.12.27-.22.44-.29s.35-.11.54-.11.37.04.54.11c.17.07.31.17.44.29.12.12.22.27.29.44.07.17.11.35.11.54s-.04.37-.11.54c-.07.17-.17.31-.29.43s-.27.22-.44.29c-.17.07-.35.1-.54.1s-.37-.04-.54-.1-.32-.16-.44-.29c-.12-.12-.22-.26-.29-.43-.07-.17-.1-.35-.1-.54Z"/>
      <path class="cls-14" d="M732.31,577.46h-2.45v-13.11h2.45v13.11Z"/>
      <path class="cls-14" d="M744.06,564.36c.07,0,.14.03.2.05.06.03.11.07.17.12.05.05.12.12.18.2l6.88,8.77c-.02-.21-.04-.42-.05-.62s-.01-.39-.01-.57v-7.97h2.15v13.11h-1.26c-.19,0-.35-.03-.48-.09-.13-.06-.25-.17-.37-.33l-6.85-8.73c.02.19.03.39.04.58s.01.36.01.52v8.05h-2.15v-13.11h1.28c.11,0,.2,0,.27.01Z"/>
      <path class="cls-14" d="M765.02,564.36c.07,0,.14.03.2.05.06.03.11.07.17.12.05.05.12.12.18.2l6.88,8.77c-.02-.21-.04-.42-.05-.62s-.01-.39-.01-.57v-7.97h2.15v13.11h-1.26c-.19,0-.35-.03-.48-.09-.13-.06-.25-.17-.37-.33l-6.85-8.73c.02.19.03.39.04.58s.01.36.01.52v8.05h-2.15v-13.11h1.28c.11,0,.2,0,.27.01Z"/>
      <path class="cls-14" d="M797,570.9c0,.96-.16,1.85-.48,2.67s-.77,1.53-1.35,2.13-1.28,1.06-2.09,1.4c-.82.34-1.72.5-2.71.5s-1.9-.17-2.71-.5-1.52-.8-2.1-1.4c-.58-.6-1.04-1.31-1.36-2.13s-.48-1.71-.48-2.67.16-1.85.48-2.67.77-1.53,1.36-2.13c.58-.6,1.28-1.06,2.1-1.4s1.72-.5,2.71-.5,1.9.17,2.71.51c.82.34,1.51.81,2.09,1.4s1.03,1.3,1.35,2.12.48,1.71.48,2.67ZM794.5,570.9c0-.72-.1-1.36-.28-1.93-.19-.57-.46-1.06-.82-1.46-.36-.4-.79-.7-1.3-.92-.51-.21-1.09-.32-1.73-.32s-1.22.11-1.73.32c-.51.21-.95.52-1.31.92s-.64.88-.83,1.46c-.19.57-.29,1.22-.29,1.93s.1,1.36.29,1.94c.19.57.47,1.05.83,1.45.36.4.8.7,1.31.91.51.21,1.09.32,1.73.32s1.22-.11,1.73-.32c.51-.21.94-.52,1.3-.91.36-.4.63-.88.82-1.45.19-.57.28-1.22.28-1.94Z"/>
      <path class="cls-14" d="M804.38,564.35h1.97c.21,0,.38.05.52.15.13.1.23.24.3.4l3.08,8c.1.26.2.55.29.86s.18.64.27.98c.14-.69.31-1.31.52-1.84l3.07-8c.05-.14.15-.27.29-.38s.31-.17.52-.17h1.97l-5.29,13.11h-2.2l-5.29-13.11Z"/>
      <path class="cls-14" d="M835.79,577.46h-1.89c-.21,0-.39-.05-.52-.16s-.23-.24-.3-.39l-.98-2.67h-5.43l-.98,2.67c-.05.14-.14.27-.29.38-.14.11-.32.17-.52.17h-1.89l5.15-13.11h2.49l5.15,13.11ZM827.3,572.51h4.18l-1.6-4.36c-.07-.19-.15-.42-.24-.68s-.17-.55-.26-.86c-.09.31-.17.6-.25.86-.08.27-.16.5-.24.7l-1.6,4.34Z"/>
      <path class="cls-14" d="M852.29,564.35v2h-3.94v11.1h-2.44v-11.1h-3.96v-2h10.34Z"/>
      <path class="cls-14" d="M869.36,564.35v1.94h-5.81v3.63h4.58v1.88h-4.58v3.71h5.81v1.95h-8.27v-13.11h8.27Z"/>
    </g>
  </g>
</svg>